# MagicaVoxel @ Ephtracy

# group
o 

# material
mtllib House 2.mtl
usemtl palette

# normals
vn -1 0 0
vn 1 0 0
vn 0 0 1
vn 0 0 -1
vn 0 -1 0
vn 0 1 0

# texcoords
vt 0.232422 0.5
vt 0.333984 0.5
vt 0.564453 0.5
vt 0.740234 0.5
vt 0.974609 0.5

# verts
v -1.4 1.3 1.4
v -1.4 1.3 -1.4
v -1.4 1.4 1.4
v -1.4 1.4 -1.4
v -1.1 1.4 1.1
v -1.1 1.4 -1.1
v -1.1 1.5 1.1
v -1.1 1.5 -1.1
v -1 0 1
v -1 0 -1
v -1 0.1 0.8
v -1 0.1 0.6
v -1 0.1 0.5
v -1 0.1 0.3
v -1 0.1 -0.3
v -1 0.1 -0.5
v -1 0.1 -0.6
v -1 0.1 -0.8
v -1 0.3 0.8
v -1 0.3 0.6
v -1 0.3 0.5
v -1 0.3 0.3
v -1 0.3 -0.3
v -1 0.3 -0.5
v -1 0.3 -0.6
v -1 0.3 -0.8
v -1 0.4 0.8
v -1 0.4 0.6
v -1 0.4 0.5
v -1 0.4 0.3
v -1 0.4 -0.3
v -1 0.4 -0.5
v -1 0.4 -0.6
v -1 0.4 -0.8
v -1 0.6 0.8
v -1 0.6 0.6
v -1 0.6 0.5
v -1 0.6 0.3
v -1 0.6 -0.3
v -1 0.6 -0.5
v -1 0.6 -0.6
v -1 0.6 -0.8
v -1 1.3 1
v -1 1.3 -1
v -0.9 1.5 0.9
v -0.9 1.5 -0.9
v -0.9 1.6 0.9
v -0.9 1.6 -0.9
v -0.7 1.6 0.7
v -0.7 1.6 -0.7
v -0.7 1.7 0.7
v -0.7 1.7 -0.7
v -0.5 1.7 0.5
v -0.5 1.7 -0.5
v -0.5 1.8 0.5
v -0.5 1.8 -0.5
v -0.3 1.8 0.3
v -0.3 1.8 -0.3
v -0.3 1.9 0.3
v -0.3 1.9 -0.3
v -0.2 1.9 0.2
v -0.2 1.9 -0.2
v -0.2 2 0.2
v -0.2 2 -0.2
v -0.1 2 0.1
v -0.1 2 -0.1
v -0.1 2.1 0.1
v -0.1 2.1 -0.1
v 0 2 0.1
v 0 2 -0.1
v 0 2.1 0.1
v 0 2.1 -0.1
v 0.1 1.9 0.2
v 0.1 1.9 -0.2
v 0.1 2 0.2
v 0.1 2 -0.2
v 0.2 1.8 0.3
v 0.2 1.8 -0.3
v 0.2 1.9 0.3
v 0.2 1.9 -0.3
v 0.4 1.7 0.5
v 0.4 1.7 -0.5
v 0.4 1.8 0.5
v 0.4 1.8 -0.5
v 0.6 1.6 0.7
v 0.6 1.6 -0.7
v 0.6 1.7 0.7
v 0.6 1.7 -0.7
v 0.8 1.5 0.9
v 0.8 1.5 -0.9
v 0.8 1.6 0.9
v 0.8 1.6 -0.9
v 1 0 1
v 1 0 -1
v 1 0.1 0.8
v 1 0.1 0.6
v 1 0.1 0.5
v 1 0.1 0.3
v 1 0.1 -0.3
v 1 0.1 -0.5
v 1 0.1 -0.6
v 1 0.1 -0.8
v 1 0.3 0.8
v 1 0.3 0.6
v 1 0.3 0.5
v 1 0.3 0.3
v 1 0.3 -0.3
v 1 0.3 -0.5
v 1 0.3 -0.6
v 1 0.3 -0.8
v 1 0.4 0.8
v 1 0.4 0.6
v 1 0.4 0.5
v 1 0.4 0.3
v 1 0.4 -0.3
v 1 0.4 -0.5
v 1 0.4 -0.6
v 1 0.4 -0.8
v 1 0.6 0.8
v 1 0.6 0.6
v 1 0.6 0.5
v 1 0.6 0.3
v 1 0.6 -0.3
v 1 0.6 -0.5
v 1 0.6 -0.6
v 1 0.6 -0.8
v 1 1.3 1
v 1 1.3 -1
v 1.1 1.4 1.1
v 1.1 1.4 -1.1
v 1.1 1.5 1.1
v 1.1 1.5 -1.1
v 1.4 1.3 1.4
v 1.4 1.3 -1.4
v 1.4 1.4 1.4
v 1.4 1.4 -1.4
v -1.4 1.3 1.4
v -1.4 1.4 1.4
v 1.4 1.3 1.4
v 1.4 1.4 1.4
v -1.1 1.4 1.1
v -1.1 1.5 1.1
v 1.1 1.4 1.1
v 1.1 1.5 1.1
v -1 0 1
v -1 1.3 1
v -0.9 0.1 1
v -0.9 0.3 1
v -0.9 0.4 1
v -0.9 0.6 1
v -0.7 0.1 1
v -0.7 0.3 1
v -0.7 0.4 1
v -0.7 0.6 1
v -0.6 0.1 1
v -0.6 0.3 1
v -0.6 0.4 1
v -0.6 0.6 1
v -0.4 0.1 1
v -0.4 0.3 1
v -0.4 0.4 1
v -0.4 0.6 1
v -0.2 0 1
v -0.2 0.6 1
v 0.1 0.2 1
v 0.1 0.3 1
v 0.2 0 1
v 0.2 0.2 1
v 0.2 0.3 1
v 0.2 0.6 1
v 0.4 0.1 1
v 0.4 0.3 1
v 0.4 0.4 1
v 0.4 0.6 1
v 0.6 0.1 1
v 0.6 0.3 1
v 0.6 0.4 1
v 0.6 0.6 1
v 0.7 0.1 1
v 0.7 0.3 1
v 0.7 0.4 1
v 0.7 0.6 1
v 0.9 0.1 1
v 0.9 0.3 1
v 0.9 0.4 1
v 0.9 0.6 1
v 1 0 1
v 1 1.3 1
v -0.9 1.5 0.9
v -0.9 1.6 0.9
v 0.8 1.5 0.9
v 0.8 1.6 0.9
v -0.7 1.6 0.7
v -0.7 1.7 0.7
v 0.6 1.6 0.7
v 0.6 1.7 0.7
v -0.5 1.7 0.5
v -0.5 1.8 0.5
v 0.4 1.7 0.5
v 0.4 1.8 0.5
v -0.3 1.8 0.3
v -0.3 1.9 0.3
v 0.2 1.8 0.3
v 0.2 1.9 0.3
v -0.2 1.9 0.2
v -0.2 2 0.2
v 0.1 1.9 0.2
v 0.1 2 0.2
v -0.1 2 0.1
v -0.1 2.1 0.1
v 0 2 0.1
v 0 2.1 0.1
v -0.1 2 -0.1
v -0.1 2.1 -0.1
v 0 2 -0.1
v 0 2.1 -0.1
v -0.2 1.9 -0.2
v -0.2 2 -0.2
v 0.1 1.9 -0.2
v 0.1 2 -0.2
v -0.3 1.8 -0.3
v -0.3 1.9 -0.3
v 0.2 1.8 -0.3
v 0.2 1.9 -0.3
v -0.5 1.7 -0.5
v -0.5 1.8 -0.5
v 0.4 1.7 -0.5
v 0.4 1.8 -0.5
v -0.7 1.6 -0.7
v -0.7 1.7 -0.7
v 0.6 1.6 -0.7
v 0.6 1.7 -0.7
v -0.9 1.5 -0.9
v -0.9 1.6 -0.9
v 0.8 1.5 -0.9
v 0.8 1.6 -0.9
v -1 0 -1
v -1 1.3 -1
v 1 0 -1
v 1 1.3 -1
v -1.1 1.4 -1.1
v -1.1 1.5 -1.1
v 1.1 1.4 -1.1
v 1.1 1.5 -1.1
v -1.4 1.3 -1.4
v -1.4 1.4 -1.4
v 1.4 1.3 -1.4
v 1.4 1.4 -1.4
v -1 0 1
v -0.2 0 1
v 0.2 0 1
v 1 0 1
v -0.2 0 0.9
v 0.2 0 0.9
v -1 0 -1
v 1 0 -1
v -1.4 1.3 1.4
v 1.4 1.3 1.4
v -1 1.3 1
v 1 1.3 1
v -1 1.3 -1
v 1 1.3 -1
v -1.4 1.3 -1.4
v 1.4 1.3 -1.4
v -1.4 1.4 1.4
v 1.4 1.4 1.4
v -1.1 1.4 1.1
v 1.1 1.4 1.1
v -1.1 1.4 -1.1
v 1.1 1.4 -1.1
v -1.4 1.4 -1.4
v 1.4 1.4 -1.4
v -1.1 1.5 1.1
v 1.1 1.5 1.1
v -0.9 1.5 0.9
v 0.8 1.5 0.9
v -0.9 1.5 -0.9
v 0.8 1.5 -0.9
v -1.1 1.5 -1.1
v 1.1 1.5 -1.1
v -0.9 1.6 0.9
v 0.8 1.6 0.9
v -0.7 1.6 0.7
v 0.6 1.6 0.7
v -0.7 1.6 -0.7
v 0.6 1.6 -0.7
v -0.9 1.6 -0.9
v 0.8 1.6 -0.9
v -0.7 1.7 0.7
v 0.6 1.7 0.7
v -0.5 1.7 0.5
v 0.4 1.7 0.5
v -0.5 1.7 -0.5
v 0.4 1.7 -0.5
v -0.7 1.7 -0.7
v 0.6 1.7 -0.7
v -0.5 1.8 0.5
v 0.4 1.8 0.5
v -0.3 1.8 0.3
v 0.2 1.8 0.3
v -0.3 1.8 -0.3
v 0.2 1.8 -0.3
v -0.5 1.8 -0.5
v 0.4 1.8 -0.5
v -0.3 1.9 0.3
v 0.2 1.9 0.3
v -0.2 1.9 0.2
v 0.1 1.9 0.2
v -0.2 1.9 -0.2
v 0.1 1.9 -0.2
v -0.3 1.9 -0.3
v 0.2 1.9 -0.3
v -0.2 2 0.2
v 0.1 2 0.2
v -0.1 2 0.1
v 0 2 0.1
v -0.1 2 -0.1
v 0 2 -0.1
v -0.2 2 -0.2
v 0.1 2 -0.2
v -0.1 2.1 0.1
v 0 2.1 0.1
v -0.1 2.1 -0.1
v 0 2.1 -0.1

# faces
f 3/4/1 2/4/1 1/4/1
f 4/4/1 2/4/1 3/4/1
f 7/4/1 6/4/1 5/4/1
f 8/4/1 6/4/1 7/4/1
f 11/2/1 10/2/1 9/2/1
f 12/2/1 10/2/1 11/2/1
f 13/2/1 10/2/1 12/2/1
f 14/2/1 10/2/1 13/2/1
f 15/2/1 10/2/1 14/2/1
f 16/2/1 10/2/1 15/2/1
f 17/2/1 10/2/1 16/2/1
f 18/2/1 10/2/1 17/2/1
f 19/2/1 11/2/1 9/2/1
f 19/3/1 12/3/1 11/3/1
f 20/2/1 13/2/1 12/2/1
f 20/3/1 12/3/1 19/3/1
f 21/3/1 14/3/1 13/3/1
f 21/2/1 13/2/1 20/2/1
f 22/2/1 15/2/1 14/2/1
f 22/3/1 14/3/1 21/3/1
f 23/3/1 16/3/1 15/3/1
f 23/2/1 15/2/1 22/2/1
f 24/2/1 17/2/1 16/2/1
f 24/3/1 16/3/1 23/3/1
f 25/3/1 18/3/1 17/3/1
f 25/2/1 17/2/1 24/2/1
f 26/2/1 10/2/1 18/2/1
f 26/3/1 18/3/1 25/3/1
f 27/2/1 25/2/1 24/2/1
f 27/2/1 24/2/1 23/2/1
f 27/2/1 26/2/1 25/2/1
f 27/2/1 23/2/1 22/2/1
f 27/2/1 22/2/1 21/2/1
f 27/2/1 21/2/1 20/2/1
f 27/2/1 20/2/1 19/2/1
f 27/2/1 19/2/1 9/2/1
f 28/2/1 26/2/1 27/2/1
f 29/2/1 26/2/1 28/2/1
f 30/2/1 26/2/1 29/2/1
f 31/2/1 26/2/1 30/2/1
f 32/2/1 26/2/1 31/2/1
f 33/2/1 26/2/1 32/2/1
f 34/2/1 10/2/1 26/2/1
f 34/2/1 26/2/1 33/2/1
f 35/2/1 27/2/1 9/2/1
f 35/3/1 28/3/1 27/3/1
f 36/2/1 29/2/1 28/2/1
f 36/3/1 28/3/1 35/3/1
f 37/3/1 30/3/1 29/3/1
f 37/2/1 29/2/1 36/2/1
f 38/2/1 31/2/1 30/2/1
f 38/3/1 30/3/1 37/3/1
f 39/3/1 32/3/1 31/3/1
f 39/2/1 31/2/1 38/2/1
f 40/2/1 33/2/1 32/2/1
f 40/3/1 32/3/1 39/3/1
f 41/3/1 34/3/1 33/3/1
f 41/2/1 33/2/1 40/2/1
f 42/2/1 10/2/1 34/2/1
f 42/3/1 34/3/1 41/3/1
f 43/2/1 39/2/1 38/2/1
f 43/2/1 41/2/1 40/2/1
f 43/2/1 42/2/1 41/2/1
f 43/2/1 38/2/1 37/2/1
f 43/2/1 37/2/1 36/2/1
f 43/2/1 36/2/1 35/2/1
f 43/2/1 35/2/1 9/2/1
f 43/2/1 40/2/1 39/2/1
f 44/2/1 10/2/1 42/2/1
f 44/2/1 42/2/1 43/2/1
f 47/4/1 46/4/1 45/4/1
f 48/4/1 46/4/1 47/4/1
f 51/4/1 50/4/1 49/4/1
f 52/4/1 50/4/1 51/4/1
f 55/4/1 54/4/1 53/4/1
f 56/4/1 54/4/1 55/4/1
f 59/4/1 58/4/1 57/4/1
f 60/4/1 58/4/1 59/4/1
f 63/4/1 62/4/1 61/4/1
f 64/4/1 62/4/1 63/4/1
f 67/4/1 66/4/1 65/4/1
f 68/4/1 66/4/1 67/4/1
f 69/4/2 70/4/2 71/4/2
f 71/4/2 70/4/2 72/4/2
f 73/4/2 74/4/2 75/4/2
f 75/4/2 74/4/2 76/4/2
f 77/4/2 78/4/2 79/4/2
f 79/4/2 78/4/2 80/4/2
f 81/4/2 82/4/2 83/4/2
f 83/4/2 82/4/2 84/4/2
f 85/4/2 86/4/2 87/4/2
f 87/4/2 86/4/2 88/4/2
f 89/4/2 90/4/2 91/4/2
f 91/4/2 90/4/2 92/4/2
f 93/2/2 94/2/2 95/2/2
f 95/2/2 94/2/2 96/2/2
f 96/2/2 94/2/2 97/2/2
f 97/2/2 94/2/2 98/2/2
f 98/2/2 94/2/2 99/2/2
f 99/2/2 94/2/2 100/2/2
f 100/2/2 94/2/2 101/2/2
f 101/2/2 94/2/2 102/2/2
f 93/2/2 95/2/2 103/2/2
f 95/3/2 96/3/2 103/3/2
f 96/2/2 97/2/2 104/2/2
f 103/3/2 96/3/2 104/3/2
f 97/3/2 98/3/2 105/3/2
f 104/2/2 97/2/2 105/2/2
f 98/2/2 99/2/2 106/2/2
f 105/3/2 98/3/2 106/3/2
f 99/3/2 100/3/2 107/3/2
f 106/2/2 99/2/2 107/2/2
f 100/2/2 101/2/2 108/2/2
f 107/3/2 100/3/2 108/3/2
f 101/3/2 102/3/2 109/3/2
f 108/2/2 101/2/2 109/2/2
f 102/2/2 94/2/2 110/2/2
f 109/3/2 102/3/2 110/3/2
f 108/2/2 109/2/2 111/2/2
f 107/2/2 108/2/2 111/2/2
f 109/2/2 110/2/2 111/2/2
f 106/2/2 107/2/2 111/2/2
f 105/2/2 106/2/2 111/2/2
f 104/2/2 105/2/2 111/2/2
f 103/2/2 104/2/2 111/2/2
f 93/2/2 103/2/2 111/2/2
f 111/2/2 110/2/2 112/2/2
f 112/2/2 110/2/2 113/2/2
f 113/2/2 110/2/2 114/2/2
f 114/2/2 110/2/2 115/2/2
f 115/2/2 110/2/2 116/2/2
f 116/2/2 110/2/2 117/2/2
f 110/2/2 94/2/2 118/2/2
f 117/2/2 110/2/2 118/2/2
f 93/2/2 111/2/2 119/2/2
f 111/3/2 112/3/2 119/3/2
f 112/2/2 113/2/2 120/2/2
f 119/3/2 112/3/2 120/3/2
f 113/3/2 114/3/2 121/3/2
f 120/2/2 113/2/2 121/2/2
f 114/2/2 115/2/2 122/2/2
f 121/3/2 114/3/2 122/3/2
f 115/3/2 116/3/2 123/3/2
f 122/2/2 115/2/2 123/2/2
f 116/2/2 117/2/2 124/2/2
f 123/3/2 116/3/2 124/3/2
f 117/3/2 118/3/2 125/3/2
f 124/2/2 117/2/2 125/2/2
f 118/2/2 94/2/2 126/2/2
f 125/3/2 118/3/2 126/3/2
f 122/2/2 123/2/2 127/2/2
f 124/2/2 125/2/2 127/2/2
f 125/2/2 126/2/2 127/2/2
f 121/2/2 122/2/2 127/2/2
f 120/2/2 121/2/2 127/2/2
f 119/2/2 120/2/2 127/2/2
f 93/2/2 119/2/2 127/2/2
f 123/2/2 124/2/2 127/2/2
f 126/2/2 94/2/2 128/2/2
f 127/2/2 126/2/2 128/2/2
f 129/4/2 130/4/2 131/4/2
f 131/4/2 130/4/2 132/4/2
f 133/4/2 134/4/2 135/4/2
f 135/4/2 134/4/2 136/4/2
f 139/4/3 138/4/3 137/4/3
f 140/4/3 138/4/3 139/4/3
f 143/4/3 142/4/3 141/4/3
f 144/4/3 142/4/3 143/4/3
f 147/2/3 146/2/3 145/2/3
f 148/2/3 146/2/3 147/2/3
f 149/2/3 146/2/3 148/2/3
f 150/2/3 146/2/3 149/2/3
f 151/2/3 147/2/3 145/2/3
f 151/3/3 148/3/3 147/3/3
f 152/2/3 149/2/3 148/2/3
f 152/3/3 148/3/3 151/3/3
f 153/3/3 150/3/3 149/3/3
f 153/2/3 149/2/3 152/2/3
f 154/2/3 146/2/3 150/2/3
f 154/3/3 150/3/3 153/3/3
f 155/2/3 153/2/3 152/2/3
f 155/2/3 152/2/3 151/2/3
f 155/2/3 154/2/3 153/2/3
f 155/2/3 151/2/3 145/2/3
f 156/2/3 154/2/3 155/2/3
f 157/2/3 154/2/3 156/2/3
f 158/2/3 146/2/3 154/2/3
f 158/2/3 154/2/3 157/2/3
f 159/2/3 155/2/3 145/2/3
f 159/3/3 156/3/3 155/3/3
f 160/2/3 157/2/3 156/2/3
f 160/3/3 156/3/3 159/3/3
f 161/3/3 158/3/3 157/3/3
f 161/2/3 157/2/3 160/2/3
f 162/2/3 146/2/3 158/2/3
f 162/3/3 158/3/3 161/3/3
f 163/2/3 159/2/3 145/2/3
f 163/2/3 161/2/3 160/2/3
f 163/2/3 162/2/3 161/2/3
f 163/2/3 160/2/3 159/2/3
f 164/2/3 146/2/3 162/2/3
f 164/2/3 162/2/3 163/2/3
f 165/1/3 164/1/3 163/1/3
f 166/1/3 164/1/3 165/1/3
f 167/1/3 165/1/3 163/1/3
f 168/5/3 166/5/3 165/5/3
f 168/1/3 165/1/3 167/1/3
f 169/1/3 164/1/3 166/1/3
f 169/5/3 166/5/3 168/5/3
f 170/2/3 146/2/3 164/2/3
f 170/1/3 164/1/3 169/1/3
f 171/2/3 169/2/3 168/2/3
f 171/2/3 168/2/3 167/2/3
f 171/2/3 170/2/3 169/2/3
f 172/2/3 170/2/3 171/2/3
f 173/2/3 170/2/3 172/2/3
f 174/2/3 146/2/3 170/2/3
f 174/2/3 170/2/3 173/2/3
f 175/2/3 171/2/3 167/2/3
f 175/3/3 172/3/3 171/3/3
f 176/2/3 173/2/3 172/2/3
f 176/3/3 172/3/3 175/3/3
f 177/3/3 174/3/3 173/3/3
f 177/2/3 173/2/3 176/2/3
f 178/2/3 146/2/3 174/2/3
f 178/3/3 174/3/3 177/3/3
f 179/2/3 175/2/3 167/2/3
f 179/2/3 177/2/3 176/2/3
f 179/2/3 178/2/3 177/2/3
f 179/2/3 176/2/3 175/2/3
f 180/2/3 178/2/3 179/2/3
f 181/2/3 178/2/3 180/2/3
f 182/2/3 146/2/3 178/2/3
f 182/2/3 178/2/3 181/2/3
f 183/2/3 179/2/3 167/2/3
f 183/3/3 180/3/3 179/3/3
f 184/2/3 181/2/3 180/2/3
f 184/3/3 180/3/3 183/3/3
f 185/3/3 182/3/3 181/3/3
f 185/2/3 181/2/3 184/2/3
f 186/2/3 146/2/3 182/2/3
f 186/3/3 182/3/3 185/3/3
f 187/2/3 183/2/3 167/2/3
f 187/2/3 185/2/3 184/2/3
f 187/2/3 186/2/3 185/2/3
f 187/2/3 184/2/3 183/2/3
f 188/2/3 146/2/3 186/2/3
f 188/2/3 186/2/3 187/2/3
f 191/4/3 190/4/3 189/4/3
f 192/4/3 190/4/3 191/4/3
f 195/4/3 194/4/3 193/4/3
f 196/4/3 194/4/3 195/4/3
f 199/4/3 198/4/3 197/4/3
f 200/4/3 198/4/3 199/4/3
f 203/4/3 202/4/3 201/4/3
f 204/4/3 202/4/3 203/4/3
f 207/4/3 206/4/3 205/4/3
f 208/4/3 206/4/3 207/4/3
f 211/4/3 210/4/3 209/4/3
f 212/4/3 210/4/3 211/4/3
f 213/4/4 214/4/4 215/4/4
f 215/4/4 214/4/4 216/4/4
f 217/4/4 218/4/4 219/4/4
f 219/4/4 218/4/4 220/4/4
f 221/4/4 222/4/4 223/4/4
f 223/4/4 222/4/4 224/4/4
f 225/4/4 226/4/4 227/4/4
f 227/4/4 226/4/4 228/4/4
f 229/4/4 230/4/4 231/4/4
f 231/4/4 230/4/4 232/4/4
f 233/4/4 234/4/4 235/4/4
f 235/4/4 234/4/4 236/4/4
f 237/2/4 238/2/4 239/2/4
f 239/2/4 238/2/4 240/2/4
f 241/4/4 242/4/4 243/4/4
f 243/4/4 242/4/4 244/4/4
f 245/4/4 246/4/4 247/4/4
f 247/4/4 246/4/4 248/4/4
f 253/2/5 250/2/5 249/2/5
f 253/1/5 251/1/5 250/1/5
f 254/2/5 252/2/5 251/2/5
f 254/1/5 251/1/5 253/1/5
f 255/2/5 253/2/5 249/2/5
f 255/2/5 254/2/5 253/2/5
f 256/2/5 252/2/5 254/2/5
f 256/2/5 254/2/5 255/2/5
f 259/4/5 258/4/5 257/4/5
f 260/4/5 258/4/5 259/4/5
f 261/4/5 259/4/5 257/4/5
f 262/4/5 258/4/5 260/4/5
f 263/4/5 261/4/5 257/4/5
f 263/4/5 262/4/5 261/4/5
f 264/4/5 258/4/5 262/4/5
f 264/4/5 262/4/5 263/4/5
f 265/4/6 266/4/6 267/4/6
f 267/4/6 266/4/6 268/4/6
f 265/4/6 267/4/6 269/4/6
f 268/4/6 266/4/6 270/4/6
f 265/4/6 269/4/6 271/4/6
f 269/4/6 270/4/6 271/4/6
f 270/4/6 266/4/6 272/4/6
f 271/4/6 270/4/6 272/4/6
f 273/4/6 274/4/6 275/4/6
f 275/4/6 274/4/6 276/4/6
f 273/4/6 275/4/6 277/4/6
f 276/4/6 274/4/6 278/4/6
f 273/4/6 277/4/6 279/4/6
f 277/4/6 278/4/6 279/4/6
f 278/4/6 274/4/6 280/4/6
f 279/4/6 278/4/6 280/4/6
f 281/4/6 282/4/6 283/4/6
f 283/4/6 282/4/6 284/4/6
f 281/4/6 283/4/6 285/4/6
f 284/4/6 282/4/6 286/4/6
f 281/4/6 285/4/6 287/4/6
f 285/4/6 286/4/6 287/4/6
f 286/4/6 282/4/6 288/4/6
f 287/4/6 286/4/6 288/4/6
f 289/4/6 290/4/6 291/4/6
f 291/4/6 290/4/6 292/4/6
f 289/4/6 291/4/6 293/4/6
f 292/4/6 290/4/6 294/4/6
f 289/4/6 293/4/6 295/4/6
f 293/4/6 294/4/6 295/4/6
f 294/4/6 290/4/6 296/4/6
f 295/4/6 294/4/6 296/4/6
f 297/4/6 298/4/6 299/4/6
f 299/4/6 298/4/6 300/4/6
f 297/4/6 299/4/6 301/4/6
f 300/4/6 298/4/6 302/4/6
f 297/4/6 301/4/6 303/4/6
f 301/4/6 302/4/6 303/4/6
f 302/4/6 298/4/6 304/4/6
f 303/4/6 302/4/6 304/4/6
f 305/4/6 306/4/6 307/4/6
f 307/4/6 306/4/6 308/4/6
f 305/4/6 307/4/6 309/4/6
f 308/4/6 306/4/6 310/4/6
f 305/4/6 309/4/6 311/4/6
f 309/4/6 310/4/6 311/4/6
f 310/4/6 306/4/6 312/4/6
f 311/4/6 310/4/6 312/4/6
f 313/4/6 314/4/6 315/4/6
f 315/4/6 314/4/6 316/4/6
f 313/4/6 315/4/6 317/4/6
f 316/4/6 314/4/6 318/4/6
f 313/4/6 317/4/6 319/4/6
f 317/4/6 318/4/6 319/4/6
f 318/4/6 314/4/6 320/4/6
f 319/4/6 318/4/6 320/4/6
f 321/4/6 322/4/6 323/4/6
f 323/4/6 322/4/6 324/4/6
